<?xml version="1.0" encoding="UTF-8" standalone="no"?><svg xmlns="http://www.w3.org/2000/svg" xmlns:xlink="http://www.w3.org/1999/xlink" contentScriptType="application/ecmascript" contentStyleType="text/css" height="535px" preserveAspectRatio="none" style="width:754px;height:535px;" version="1.1" viewBox="0 0 754 535" width="754px" zoomAndPan="magnify"><defs><filter height="300%" id="fpmumxsevcij8" width="300%" x="-1" y="-1"><feGaussianBlur result="blurOut" stdDeviation="2.0"/><feColorMatrix in="blurOut" result="blurOut2" type="matrix" values="0 0 0 0 0 0 0 0 0 0 0 0 0 0 0 0 0 0 .4 0"/><feOffset dx="4.0" dy="4.0" in="blurOut2" result="blurOut3"/><feBlend in="SourceGraphic" in2="blurOut3" mode="normal"/></filter></defs><g><!--cluster AuthenticationProvider--><polygon fill="#FFFFFF" filter="url(#fpmumxsevcij8)" points="30,405,40,395,298,395,298,513,288,523,30,523,30,405" style="stroke: #000000; stroke-width: 1.5;"/><line style="stroke: #000000; stroke-width: 1.5;" x1="288" x2="297" y1="405" y2="396"/><line style="stroke: #000000; stroke-width: 1.5;" x1="30" x2="288" y1="405" y2="405"/><line style="stroke: #000000; stroke-width: 1.5;" x1="288" x2="288" y1="405" y2="523"/><text fill="#000000" font-family="sans-serif" font-size="14" font-weight="bold" lengthAdjust="spacingAndGlyphs" textLength="182" x="69" y="425.9951">AuthenticationProvider</text><!--cluster Server--><polygon fill="#FFFFFF" filter="url(#fpmumxsevcij8)" points="96,199,106,189,442,189,442,318,432,328,96,328,96,199" style="stroke: #000000; stroke-width: 1.5;"/><line style="stroke: #000000; stroke-width: 1.5;" x1="432" x2="441" y1="199" y2="190"/><line style="stroke: #000000; stroke-width: 1.5;" x1="96" x2="432" y1="199" y2="199"/><line style="stroke: #000000; stroke-width: 1.5;" x1="432" x2="432" y1="199" y2="328"/><text fill="#000000" font-family="sans-serif" font-size="14" font-weight="bold" lengthAdjust="spacingAndGlyphs" textLength="53" x="238.5" y="219.9951">Server</text><!--cluster DB--><polygon fill="#FFFFFF" filter="url(#fpmumxsevcij8)" points="330,408.5,340,398.5,437,398.5,437,509.5,427,519.5,330,519.5,330,408.5" style="stroke: #000000; stroke-width: 1.5;"/><line style="stroke: #000000; stroke-width: 1.5;" x1="427" x2="436" y1="408.5" y2="399.5"/><line style="stroke: #000000; stroke-width: 1.5;" x1="330" x2="427" y1="408.5" y2="408.5"/><line style="stroke: #000000; stroke-width: 1.5;" x1="427" x2="427" y1="408.5" y2="519.5"/><text fill="#000000" font-family="sans-serif" font-size="14" font-weight="bold" lengthAdjust="spacingAndGlyphs" textLength="21" x="369" y="429.4951">DB</text><!--cluster EmailServer--><polygon fill="#FFFFFF" filter="url(#fpmumxsevcij8)" points="461,413,471,403,640,403,640,505,630,515,461,515,461,413" style="stroke: #000000; stroke-width: 1.5;"/><line style="stroke: #000000; stroke-width: 1.5;" x1="630" x2="639" y1="413" y2="404"/><line style="stroke: #000000; stroke-width: 1.5;" x1="461" x2="630" y1="413" y2="413"/><line style="stroke: #000000; stroke-width: 1.5;" x1="630" x2="630" y1="413" y2="515"/><text fill="#000000" font-family="sans-serif" font-size="14" font-weight="bold" lengthAdjust="spacingAndGlyphs" textLength="93" x="500" y="433.9951">EmailServer</text><!--cluster 3rdPartySystem--><polygon fill="#FFFFFF" filter="url(#fpmumxsevcij8)" points="520,212.5,530,202.5,732,202.5,732,304.5,722,314.5,520,314.5,520,212.5" style="stroke: #000000; stroke-width: 1.5;"/><line style="stroke: #000000; stroke-width: 1.5;" x1="722" x2="731" y1="212.5" y2="203.5"/><line style="stroke: #000000; stroke-width: 1.5;" x1="520" x2="722" y1="212.5" y2="212.5"/><line style="stroke: #000000; stroke-width: 1.5;" x1="722" x2="722" y1="212.5" y2="314.5"/><text fill="#000000" font-family="sans-serif" font-size="14" font-weight="bold" lengthAdjust="spacingAndGlyphs" textLength="126" x="559" y="233.4951">3rdPartySystem</text><!--entity LDAP--><rect fill="#D3D3D3" filter="url(#fpmumxsevcij8)" height="46.2969" style="stroke: #000000; stroke-width: 1.5;" width="66" x="208" y="453"/><rect fill="#D3D3D3" height="5" style="stroke: #000000; stroke-width: 1.5;" width="10" x="203" y="458"/><rect fill="#D3D3D3" height="5" style="stroke: #000000; stroke-width: 1.5;" width="10" x="203" y="489.2969"/><text fill="#000000" font-family="sans-serif" font-size="14" lengthAdjust="spacingAndGlyphs" textLength="36" x="223" y="480.9951">LDAP</text><!--entity Haka--><rect fill="#D3D3D3" filter="url(#fpmumxsevcij8)" height="46.2969" style="stroke: #000000; stroke-width: 1.5;" width="64" x="109" y="453"/><rect fill="#D3D3D3" height="5" style="stroke: #000000; stroke-width: 1.5;" width="10" x="104" y="458"/><rect fill="#D3D3D3" height="5" style="stroke: #000000; stroke-width: 1.5;" width="10" x="104" y="489.2969"/><text fill="#000000" font-family="sans-serif" font-size="14" lengthAdjust="spacingAndGlyphs" textLength="34" x="124" y="480.9951">Haka</text><!--entity WebApp--><rect fill="#D3D3D3" filter="url(#fpmumxsevcij8)" height="72.5938" style="stroke: #000000; stroke-width: 1.5;" width="161" x="112.5" y="239"/><rect fill="#D3D3D3" height="5" style="stroke: #000000; stroke-width: 1.5;" width="10" x="107.5" y="244"/><rect fill="#D3D3D3" height="5" style="stroke: #000000; stroke-width: 1.5;" width="10" x="107.5" y="301.5938"/><text fill="#000000" font-family="sans-serif" font-size="14" font-style="italic" lengthAdjust="spacingAndGlyphs" textLength="131" x="127.5" y="266.9951">«Single-Page App»</text><text fill="#000000" font-family="sans-serif" font-size="14" lengthAdjust="spacingAndGlyphs" textLength="58" x="164" y="293.292">WebApp</text><!--entity API--><rect fill="#D3D3D3" filter="url(#fpmumxsevcij8)" height="72.5938" style="stroke: #000000; stroke-width: 1.5;" width="85" x="340.5" y="239"/><rect fill="#D3D3D3" height="5" style="stroke: #000000; stroke-width: 1.5;" width="10" x="335.5" y="244"/><rect fill="#D3D3D3" height="5" style="stroke: #000000; stroke-width: 1.5;" width="10" x="335.5" y="301.5938"/><text fill="#000000" font-family="sans-serif" font-size="14" font-style="italic" lengthAdjust="spacingAndGlyphs" textLength="55" x="355.5" y="266.9951">«REST»</text><text fill="#000000" font-family="sans-serif" font-size="14" lengthAdjust="spacingAndGlyphs" textLength="21" x="372.5" y="293.292">API</text><!--entity rems--><path d="M350.5,458.5 C350.5,448.5 383,448.5 383,448.5 C383,448.5 415.5,448.5 415.5,458.5 L415.5,493.7969 C415.5,503.7969 383,503.7969 383,503.7969 C383,503.7969 350.5,503.7969 350.5,493.7969 L350.5,458.5 " fill="#D3D3D3" filter="url(#fpmumxsevcij8)" style="stroke: #000000; stroke-width: 1.5;"/><path d="M350.5,458.5 C350.5,468.5 383,468.5 383,468.5 C383,468.5 415.5,468.5 415.5,458.5 " fill="none" style="stroke: #000000; stroke-width: 1.5;"/><text fill="#000000" font-family="sans-serif" font-size="14" lengthAdjust="spacingAndGlyphs" textLength="35" x="365.5" y="490.4951">rems</text><!--entity email--><rect fill="#D3D3D3" filter="url(#fpmumxsevcij8)" height="46.2969" style="stroke: #000000; stroke-width: 1.5;" width="66" x="477" y="453"/><rect fill="#D3D3D3" height="5" style="stroke: #000000; stroke-width: 1.5;" width="10" x="472" y="458"/><rect fill="#D3D3D3" height="5" style="stroke: #000000; stroke-width: 1.5;" width="10" x="472" y="489.2969"/><text fill="#000000" font-family="sans-serif" font-size="14" lengthAdjust="spacingAndGlyphs" textLength="36" x="492" y="480.9951">email</text><!--entity Receiver--><rect fill="#D3D3D3" filter="url(#fpmumxsevcij8)" height="46.2969" style="stroke: #000000; stroke-width: 1.5;" width="90" x="581" y="252.5"/><rect fill="#D3D3D3" height="5" style="stroke: #000000; stroke-width: 1.5;" width="10" x="576" y="257.5"/><rect fill="#D3D3D3" height="5" style="stroke: #000000; stroke-width: 1.5;" width="10" x="576" y="288.7969"/><text fill="#000000" font-family="sans-serif" font-size="14" lengthAdjust="spacingAndGlyphs" textLength="60" x="596" y="280.4951">Receiver</text><!--entity Applicant--><ellipse cx="129" cy="18" fill="#D3D3D3" filter="url(#fpmumxsevcij8)" rx="8" ry="8" style="stroke: #000000; stroke-width: 2.0;"/><path d="M129,26 L129,53 M116,34 L142,34 M129,53 L116,68 M129,53 L142,68 " fill="none" filter="url(#fpmumxsevcij8)" style="stroke: #000000; stroke-width: 2.0;"/><text fill="#000000" font-family="sans-serif" font-size="14" lengthAdjust="spacingAndGlyphs" textLength="63" x="97.5" y="92.9951">Applicant</text><!--entity Approver--><ellipse cx="237" cy="18" fill="#D3D3D3" filter="url(#fpmumxsevcij8)" rx="8" ry="8" style="stroke: #000000; stroke-width: 2.0;"/><path d="M237,26 L237,53 M224,34 L250,34 M237,53 L224,68 M237,53 L250,68 " fill="none" filter="url(#fpmumxsevcij8)" style="stroke: #000000; stroke-width: 2.0;"/><text fill="#000000" font-family="sans-serif" font-size="14" lengthAdjust="spacingAndGlyphs" textLength="62" x="206" y="92.9951">Approver</text><!--entity APIUser--><ellipse cx="383" cy="18" fill="#D3D3D3" filter="url(#fpmumxsevcij8)" rx="8" ry="8" style="stroke: #000000; stroke-width: 2.0;"/><path d="M383,26 L383,53 M370,34 L396,34 M383,53 L370,68 M383,53 L396,68 " fill="none" filter="url(#fpmumxsevcij8)" style="stroke: #000000; stroke-width: 2.0;"/><text fill="#000000" font-family="sans-serif" font-size="14" lengthAdjust="spacingAndGlyphs" textLength="53" x="356.5" y="92.9951">APIUser</text><!--link WebApp to AuthenticationProvider--><path d="M148.035,312.036 C128.216,330.038 106.425,353.477 93,379 C90.5482,383.6614 88.4115,388.6015 86.5497,393.6846 C86.4333,394.0023 86.318,394.3206 86.2038,394.6393 " fill="none" id="WebApp-AuthenticationProvider" style="stroke: #000000; stroke-width: 1.0;"/><polygon fill="#000000" points="86.2038,394.6393,93.0053,387.5162,87.8904,389.9324,85.4742,384.8175,86.2038,394.6393" style="stroke: #000000; stroke-width: 1.0;"/><text fill="#000000" font-family="sans-serif" font-size="13" lengthAdjust="spacingAndGlyphs" textLength="139" x="121" y="362.0669">authenticates against</text><!--link Applicant to WebApp--><path d="M142.339,101.143 C153.768,140.253 170.08,196.07 181.08,233.71 " fill="none" id="Applicant-WebApp" style="stroke: #000000; stroke-width: 1.0;"/><polygon fill="#000000" points="182.528,238.667,183.8419,228.9062,181.125,233.8679,176.1633,231.151,182.528,238.667" style="stroke: #000000; stroke-width: 1.0;"/><!--link Approver to WebApp--><path d="M227.83,101.143 C219.972,140.253 208.758,196.07 201.195,233.71 " fill="none" id="Approver-WebApp" style="stroke: #000000; stroke-width: 1.0;"/><polygon fill="#000000" points="200.199,238.667,205.8949,230.6323,201.1848,233.7651,198.052,229.055,200.199,238.667" style="stroke: #000000; stroke-width: 1.0;"/><!--link WebApp to API--><path d="M273.577,275.5 C294.563,275.5 316.511,275.5 335.194,275.5 " fill="none" id="WebApp-API" style="stroke: #000000; stroke-width: 1.0;"/><polygon fill="#000000" points="340.373,275.5,331.373,271.5,335.373,275.5,331.373,279.5,340.373,275.5" style="stroke: #000000; stroke-width: 1.0;"/><text fill="#000000" font-family="sans-serif" font-size="13" lengthAdjust="spacingAndGlyphs" textLength="0" x="317" y="263.5669"/><!--link APIUser to API--><path d="M383,101.143 C383,140.094 383,195.615 383,233.248 " fill="none" id="APIUser-API" style="stroke: #000000; stroke-width: 1.0;"/><polygon fill="#000000" points="383,238.667,387,229.667,383,233.667,379,229.667,383,238.667" style="stroke: #000000; stroke-width: 1.0;"/><text fill="#000000" font-family="sans-serif" font-size="13" lengthAdjust="spacingAndGlyphs" textLength="104" x="418.5" y="149.0669">use with API-Key</text><text fill="#000000" font-family="sans-serif" font-size="13" lengthAdjust="spacingAndGlyphs" textLength="163" x="389" y="164.1997">authenticated against DB</text><!--link API to email--><path d="M405.999,312.447 C431.036,351.581 470.492,413.249 492.92,448.3035 " fill="none" id="API-email" style="stroke: #000000; stroke-width: 1.0;"/><polygon fill="#000000" points="495.835,452.8597,494.3536,443.1229,493.1402,448.6481,487.615,447.4346,495.835,452.8597" style="stroke: #000000; stroke-width: 1.0;"/><text fill="#000000" font-family="sans-serif" font-size="13" lengthAdjust="spacingAndGlyphs" textLength="62" x="448" y="362.0669">send mail</text><!--link API to rems--><path d="M383,312.447 C383,349.717 383,407.427 383,443.12 " fill="none" id="API-rems" style="stroke: #000000; stroke-width: 1.0;"/><polygon fill="#000000" points="383,448.2213,387,439.2213,383,443.2213,379,439.2213,383,448.2213" style="stroke: #000000; stroke-width: 1.0;"/><!--link API to Receiver--><path d="M425.605,275.5 C467.546,275.5 531.584,275.5 575.932,275.5 " fill="none" id="API-Receiver" style="stroke: #000000; stroke-width: 1.0; stroke-dasharray: 7.0,7.0;"/><polygon fill="#000000" points="580.97,275.5,571.97,271.5,575.97,275.5,571.97,279.5,580.97,275.5" style="stroke: #000000; stroke-width: 1.0;"/><text fill="#000000" font-family="sans-serif" font-size="13" lengthAdjust="spacingAndGlyphs" textLength="109" x="448.75" y="296.5669">entitlement push</text><!--
@startuml
skinParam ArrowColor Black
skinParam BackgroundColor White
skinParam componentBorderColor Black
skinParam actorBorderColor Black
skinparam componentBackgroundColor LightGray
skinparam databaseBackgroundColor LightGray
skinparam actorBackgroundColor LightGray
skinparam Padding 5

actor Applicant
actor Approver
actor APIUser

node AuthenticationProvider {
  component LDAP
  component Haka
}

node Server {
  component WebApp <<Single-Page App>>
  component API <<REST>>
}

WebApp - -> AuthenticationProvider : "authenticates against"

Applicant - -> WebApp
Approver - -> WebApp
WebApp -> API : "     "
APIUser - -> API : "use with API-Key\nauthenticated against DB"


node DB {
  database rems
}

node EmailServer {
  component email
}

API - -> email : "send mail"

node 3rdPartySystem {
  component Receiver
}

API - -> rems
API .> Receiver : "entitlement push"
@enduml

PlantUML version 1.2018.03(Thu Apr 05 16:59:15 UTC 2018)
(GPL source distribution)
Java Runtime: Java(TM) SE Runtime Environment
JVM: Java HotSpot(TM) 64-Bit Server VM
Java Version: 1.7.0_25-b15
Operating System: Linux
Default Encoding: UTF-8
Language: en
Country: US
--></g></svg>