<?xml version="1.0" encoding="UTF-8"?><svg xmlns="http://www.w3.org/2000/svg" xmlns:xlink="http://www.w3.org/1999/xlink" fill-opacity="1" color-rendering="auto" color-interpolation="auto" text-rendering="auto" stroke="black" stroke-linecap="square" width="863" stroke-miterlimit="10" shape-rendering="auto" stroke-opacity="1" fill="black" stroke-dasharray="none" font-weight="normal" stroke-width="1" height="668" font-family="'Dialog'" font-style="normal" stroke-linejoin="miter" font-size="12px" stroke-dashoffset="0" image-rendering="auto">
  <!--Generated by ySVG 2.5-->
  <defs id="genericDefs"/>
  <g>
    <defs id="defs1">
      <clipPath clipPathUnits="userSpaceOnUse" id="clipPath1">
        <path d="M0 0 L863 0 L863 668 L0 668 L0 0 Z"/>
      </clipPath>
      <clipPath clipPathUnits="userSpaceOnUse" id="clipPath2">
        <path d="M1 -12 L864 -12 L864 656 L1 656 L1 -12 Z"/>
      </clipPath>
    </defs>
    <g fill="rgb(255,204,0)" text-rendering="geometricPrecision" shape-rendering="geometricPrecision" transform="matrix(1,0,0,1,-1,12)" stroke="rgb(255,204,0)">
      <rect x="720" y="290.5" clip-path="url(#clipPath2)" width="117" rx="4" ry="4" height="180" stroke="none"/>
    </g>
    <g text-rendering="geometricPrecision" stroke-miterlimit="1.45" shape-rendering="geometricPrecision" transform="matrix(1,0,0,1,-1,12)" stroke-linecap="butt">
      <rect x="720" y="290.5" clip-path="url(#clipPath2)" fill="none" width="117" rx="4" ry="4" height="180"/>
      <text x="714.8115" xml:space="preserve" y="308.1016" clip-path="url(#clipPath2)" font-family="sans-serif" stroke="none">Organisation reviewer</text>
    </g>
    <g fill="rgb(252,82,19)" text-rendering="geometricPrecision" shape-rendering="geometricPrecision" transform="matrix(1,0,0,1,-1,12)" stroke="rgb(252,82,19)">
      <rect x="277" width="86" height="30" y="398" clip-path="url(#clipPath2)" stroke="none"/>
    </g>
    <g text-rendering="geometricPrecision" stroke-miterlimit="1.45" shape-rendering="geometricPrecision" transform="matrix(1,0,0,1,-1,12)" stroke-linecap="butt">
      <rect fill="none" x="277" width="86" height="30" y="398" clip-path="url(#clipPath2)"/>
      <text x="282.9951" xml:space="preserve" y="417.5352" clip-path="url(#clipPath2)" font-family="sans-serif" stroke="none">Catalog item</text>
    </g>
    <g fill="rgb(252,82,19)" text-rendering="geometricPrecision" shape-rendering="geometricPrecision" transform="matrix(1,0,0,1,-1,12)" stroke="rgb(252,82,19)">
      <rect x="393" width="86" height="30" y="368" clip-path="url(#clipPath2)" stroke="none"/>
    </g>
    <g text-rendering="geometricPrecision" stroke-miterlimit="1.45" shape-rendering="geometricPrecision" transform="matrix(1,0,0,1,-1,12)" stroke-linecap="butt">
      <rect fill="none" x="393" width="86" height="30" y="368" clip-path="url(#clipPath2)"/>
      <text x="421.041" xml:space="preserve" y="387.5352" clip-path="url(#clipPath2)" font-family="sans-serif" stroke="none">Form</text>
    </g>
    <g fill="rgb(252,82,19)" text-rendering="geometricPrecision" shape-rendering="geometricPrecision" transform="matrix(1,0,0,1,-1,12)" stroke="rgb(252,82,19)">
      <rect x="393" width="86" height="30" y="428" clip-path="url(#clipPath2)" stroke="none"/>
    </g>
    <g text-rendering="geometricPrecision" stroke-miterlimit="1.45" shape-rendering="geometricPrecision" transform="matrix(1,0,0,1,-1,12)" stroke-linecap="butt">
      <rect fill="none" x="393" width="86" height="30" y="428" clip-path="url(#clipPath2)"/>
      <text x="409.5244" xml:space="preserve" y="447.5352" clip-path="url(#clipPath2)" font-family="sans-serif" stroke="none">Resource</text>
    </g>
    <g fill="rgb(252,82,19)" text-rendering="geometricPrecision" shape-rendering="geometricPrecision" transform="matrix(1,0,0,1,-1,12)" stroke="rgb(252,82,19)">
      <rect x="509" width="86" height="30" y="398" clip-path="url(#clipPath2)" stroke="none"/>
    </g>
    <g text-rendering="geometricPrecision" stroke-miterlimit="1.45" shape-rendering="geometricPrecision" transform="matrix(1,0,0,1,-1,12)" stroke-linecap="butt">
      <rect fill="none" x="509" width="86" height="30" y="398" clip-path="url(#clipPath2)"/>
      <text x="530.5254" xml:space="preserve" y="417.5352" clip-path="url(#clipPath2)" font-family="sans-serif" stroke="none">License</text>
    </g>
    <g fill="rgb(252,82,19)" text-rendering="geometricPrecision" shape-rendering="geometricPrecision" transform="matrix(1,0,0,1,-1,12)" stroke="rgb(252,82,19)">
      <rect x="509" width="86" height="30" y="458" clip-path="url(#clipPath2)" stroke="none"/>
    </g>
    <g text-rendering="geometricPrecision" stroke-miterlimit="1.45" shape-rendering="geometricPrecision" transform="matrix(1,0,0,1,-1,12)" stroke-linecap="butt">
      <rect fill="none" x="509" width="86" height="30" y="458" clip-path="url(#clipPath2)"/>
      <text x="530.5254" xml:space="preserve" y="477.5352" clip-path="url(#clipPath2)" font-family="sans-serif" stroke="none">License</text>
    </g>
    <g fill="rgb(54,207,42)" text-rendering="geometricPrecision" shape-rendering="geometricPrecision" transform="matrix(1,0,0,1,-1,12)" stroke="rgb(54,207,42)">
      <rect x="277" width="86" height="30" y="248" clip-path="url(#clipPath2)" stroke="none"/>
    </g>
    <g text-rendering="geometricPrecision" stroke-miterlimit="1.45" shape-rendering="geometricPrecision" transform="matrix(1,0,0,1,-1,12)" stroke-linecap="butt">
      <rect fill="none" x="277" width="86" height="30" y="248" clip-path="url(#clipPath2)"/>
      <text x="282.9951" xml:space="preserve" y="267.5352" clip-path="url(#clipPath2)" font-family="sans-serif" stroke="none">Catalog item</text>
    </g>
    <g fill="rgb(54,207,42)" text-rendering="geometricPrecision" shape-rendering="geometricPrecision" transform="matrix(1,0,0,1,-1,12)" stroke="rgb(54,207,42)">
      <rect x="393" width="86" height="30" y="218" clip-path="url(#clipPath2)" stroke="none"/>
    </g>
    <g text-rendering="geometricPrecision" stroke-miterlimit="1.45" shape-rendering="geometricPrecision" transform="matrix(1,0,0,1,-1,12)" stroke-linecap="butt">
      <rect fill="none" x="393" width="86" height="30" y="218" clip-path="url(#clipPath2)"/>
      <text x="421.041" xml:space="preserve" y="237.5352" clip-path="url(#clipPath2)" font-family="sans-serif" stroke="none">Form</text>
    </g>
    <g fill="rgb(54,207,42)" text-rendering="geometricPrecision" shape-rendering="geometricPrecision" transform="matrix(1,0,0,1,-1,12)" stroke="rgb(54,207,42)">
      <rect x="393" width="86" height="30" y="278" clip-path="url(#clipPath2)" stroke="none"/>
    </g>
    <g text-rendering="geometricPrecision" stroke-miterlimit="1.45" shape-rendering="geometricPrecision" transform="matrix(1,0,0,1,-1,12)" stroke-linecap="butt">
      <rect fill="none" x="393" width="86" height="30" y="278" clip-path="url(#clipPath2)"/>
      <text x="409.5244" xml:space="preserve" y="297.5352" clip-path="url(#clipPath2)" font-family="sans-serif" stroke="none">Resource</text>
    </g>
    <g fill="rgb(54,207,42)" text-rendering="geometricPrecision" shape-rendering="geometricPrecision" transform="matrix(1,0,0,1,-1,12)" stroke="rgb(54,207,42)">
      <rect x="509" width="86" height="30" y="248" clip-path="url(#clipPath2)" stroke="none"/>
    </g>
    <g text-rendering="geometricPrecision" stroke-miterlimit="1.45" shape-rendering="geometricPrecision" transform="matrix(1,0,0,1,-1,12)" stroke-linecap="butt">
      <rect fill="none" x="509" width="86" height="30" y="248" clip-path="url(#clipPath2)"/>
      <text x="530.5254" xml:space="preserve" y="267.5352" clip-path="url(#clipPath2)" font-family="sans-serif" stroke="none">License</text>
    </g>
    <g fill="rgb(54,207,42)" text-rendering="geometricPrecision" shape-rendering="geometricPrecision" transform="matrix(1,0,0,1,-1,12)" stroke="rgb(54,207,42)">
      <rect x="509" width="86" height="30" y="308" clip-path="url(#clipPath2)" stroke="none"/>
    </g>
    <g text-rendering="geometricPrecision" stroke-miterlimit="1.45" shape-rendering="geometricPrecision" transform="matrix(1,0,0,1,-1,12)" stroke-linecap="butt">
      <rect fill="none" x="509" width="86" height="30" y="308" clip-path="url(#clipPath2)"/>
      <text x="530.5254" xml:space="preserve" y="327.5352" clip-path="url(#clipPath2)" font-family="sans-serif" stroke="none">License</text>
    </g>
    <g fill="rgb(22,160,231)" text-rendering="geometricPrecision" shape-rendering="geometricPrecision" transform="matrix(1,0,0,1,-1,12)" stroke="rgb(22,160,231)">
      <rect x="277" width="86" height="30" y="98" clip-path="url(#clipPath2)" stroke="none"/>
    </g>
    <g text-rendering="geometricPrecision" stroke-miterlimit="1.45" shape-rendering="geometricPrecision" transform="matrix(1,0,0,1,-1,12)" stroke-linecap="butt">
      <rect fill="none" x="277" width="86" height="30" y="98" clip-path="url(#clipPath2)"/>
      <text x="292.9707" xml:space="preserve" y="117.5352" clip-path="url(#clipPath2)" font-family="sans-serif" stroke="none">Workflow</text>
    </g>
    <g fill="rgb(22,160,231)" text-rendering="geometricPrecision" shape-rendering="geometricPrecision" transform="matrix(1,0,0,1,-1,12)" stroke="rgb(22,160,231)">
      <rect x="393" width="86" height="30" y="68" clip-path="url(#clipPath2)" stroke="none"/>
    </g>
    <g text-rendering="geometricPrecision" stroke-miterlimit="1.45" shape-rendering="geometricPrecision" transform="matrix(1,0,0,1,-1,12)" stroke-linecap="butt">
      <rect fill="none" x="393" width="86" height="30" y="68" clip-path="url(#clipPath2)"/>
      <text x="414.5254" xml:space="preserve" y="87.5352" clip-path="url(#clipPath2)" font-family="sans-serif" stroke="none">License</text>
    </g>
    <g fill="rgb(22,160,231)" text-rendering="geometricPrecision" shape-rendering="geometricPrecision" transform="matrix(1,0,0,1,-1,12)" stroke="rgb(22,160,231)">
      <rect x="393" width="86" height="30" y="128" clip-path="url(#clipPath2)" stroke="none"/>
    </g>
    <g text-rendering="geometricPrecision" stroke-miterlimit="1.45" shape-rendering="geometricPrecision" transform="matrix(1,0,0,1,-1,12)" stroke-linecap="butt">
      <rect fill="none" x="393" width="86" height="30" y="128" clip-path="url(#clipPath2)"/>
      <text x="421.041" xml:space="preserve" y="147.5352" clip-path="url(#clipPath2)" font-family="sans-serif" stroke="none">Form</text>
    </g>
    <g fill="rgb(22,160,231)" text-rendering="geometricPrecision" shape-rendering="geometricPrecision" transform="matrix(1,0,0,1,-1,12)" stroke="rgb(22,160,231)">
      <rect x="393" width="86" height="30" y="8" clip-path="url(#clipPath2)" stroke="none"/>
    </g>
    <g text-rendering="geometricPrecision" stroke-miterlimit="1.45" shape-rendering="geometricPrecision" transform="matrix(1,0,0,1,-1,12)" stroke-linecap="butt">
      <rect fill="none" x="393" width="86" height="30" y="8" clip-path="url(#clipPath2)"/>
      <text x="414.5254" xml:space="preserve" y="27.5352" clip-path="url(#clipPath2)" font-family="sans-serif" stroke="none">License</text>
    </g>
    <g fill="rgb(252,82,19)" text-rendering="geometricPrecision" shape-rendering="geometricPrecision" transform="matrix(1,0,0,1,-1,12)" stroke="rgb(252,82,19)">
      <rect x="277" width="86" height="30" y="548" clip-path="url(#clipPath2)" stroke="none"/>
    </g>
    <g text-rendering="geometricPrecision" stroke-miterlimit="1.45" shape-rendering="geometricPrecision" transform="matrix(1,0,0,1,-1,12)" stroke-linecap="butt">
      <rect fill="none" x="277" width="86" height="30" y="548" clip-path="url(#clipPath2)"/>
      <text x="282.9951" xml:space="preserve" y="567.5352" clip-path="url(#clipPath2)" font-family="sans-serif" stroke="none">Catalog item</text>
    </g>
    <g fill="rgb(252,82,19)" text-rendering="geometricPrecision" shape-rendering="geometricPrecision" transform="matrix(1,0,0,1,-1,12)" stroke="rgb(252,82,19)">
      <rect x="393" width="86" height="30" y="518" clip-path="url(#clipPath2)" stroke="none"/>
    </g>
    <g text-rendering="geometricPrecision" stroke-miterlimit="1.45" shape-rendering="geometricPrecision" transform="matrix(1,0,0,1,-1,12)" stroke-linecap="butt">
      <rect fill="none" x="393" width="86" height="30" y="518" clip-path="url(#clipPath2)"/>
      <text x="421.041" xml:space="preserve" y="537.5352" clip-path="url(#clipPath2)" font-family="sans-serif" stroke="none">Form</text>
    </g>
    <g fill="rgb(252,82,19)" text-rendering="geometricPrecision" shape-rendering="geometricPrecision" transform="matrix(1,0,0,1,-1,12)" stroke="rgb(252,82,19)">
      <rect x="393" width="86" height="30" y="578" clip-path="url(#clipPath2)" stroke="none"/>
    </g>
    <g text-rendering="geometricPrecision" stroke-miterlimit="1.45" shape-rendering="geometricPrecision" transform="matrix(1,0,0,1,-1,12)" stroke-linecap="butt">
      <rect fill="none" x="393" width="86" height="30" y="578" clip-path="url(#clipPath2)"/>
      <text x="409.5244" xml:space="preserve" y="597.5352" clip-path="url(#clipPath2)" font-family="sans-serif" stroke="none">Resource</text>
    </g>
    <g fill="rgb(252,82,19)" text-rendering="geometricPrecision" shape-rendering="geometricPrecision" transform="matrix(1,0,0,1,-1,12)" stroke="rgb(252,82,19)">
      <rect x="509" width="86" height="30" y="548" clip-path="url(#clipPath2)" stroke="none"/>
    </g>
    <g text-rendering="geometricPrecision" stroke-miterlimit="1.45" shape-rendering="geometricPrecision" transform="matrix(1,0,0,1,-1,12)" stroke-linecap="butt">
      <rect fill="none" x="509" width="86" height="30" y="548" clip-path="url(#clipPath2)"/>
      <text x="530.5254" xml:space="preserve" y="567.5352" clip-path="url(#clipPath2)" font-family="sans-serif" stroke="none">License</text>
    </g>
    <g fill="rgb(252,82,19)" text-rendering="geometricPrecision" shape-rendering="geometricPrecision" transform="matrix(1,0,0,1,-1,12)" stroke="rgb(252,82,19)">
      <rect x="509" width="86" height="30" y="608" clip-path="url(#clipPath2)" stroke="none"/>
    </g>
    <g text-rendering="geometricPrecision" stroke-miterlimit="1.45" shape-rendering="geometricPrecision" transform="matrix(1,0,0,1,-1,12)" stroke-linecap="butt">
      <rect fill="none" x="509" width="86" height="30" y="608" clip-path="url(#clipPath2)"/>
      <text x="530.5254" xml:space="preserve" y="627.5352" clip-path="url(#clipPath2)" font-family="sans-serif" stroke="none">License</text>
    </g>
    <g fill="rgb(255,204,0)" text-rendering="geometricPrecision" shape-rendering="geometricPrecision" transform="matrix(1,0,0,1,-1,12)" stroke="rgb(255,204,0)">
      <rect x="29.5" width="117" height="180" y="248" clip-path="url(#clipPath2)" stroke="none"/>
    </g>
    <g text-rendering="geometricPrecision" stroke-miterlimit="1.45" shape-rendering="geometricPrecision" transform="matrix(1,0,0,1,-1,12)" stroke-linecap="butt">
      <rect fill="none" x="29.5" width="117" height="180" y="248" clip-path="url(#clipPath2)"/>
      <text x="55.0645" xml:space="preserve" y="239.4688" clip-path="url(#clipPath2)" font-family="sans-serif" stroke="none">Application</text>
    </g>
    <g fill="rgb(22,160,231)" text-rendering="geometricPrecision" shape-rendering="geometricPrecision" transform="matrix(1,0,0,1,-1,12)" stroke="rgb(22,160,231)">
      <rect x="45" width="86" height="30" y="261" clip-path="url(#clipPath2)" stroke="none"/>
    </g>
    <g text-rendering="geometricPrecision" stroke-miterlimit="1.45" shape-rendering="geometricPrecision" transform="matrix(1,0,0,1,-1,12)" stroke-linecap="butt">
      <rect fill="none" x="45" width="86" height="30" y="261" clip-path="url(#clipPath2)"/>
      <text x="73.041" xml:space="preserve" y="280.5352" clip-path="url(#clipPath2)" font-family="sans-serif" stroke="none">Form</text>
    </g>
    <g fill="rgb(54,207,42)" text-rendering="geometricPrecision" shape-rendering="geometricPrecision" transform="matrix(1,0,0,1,-1,12)" stroke="rgb(54,207,42)">
      <rect x="46.5" width="86" height="30" y="303" clip-path="url(#clipPath2)" stroke="none"/>
    </g>
    <g text-rendering="geometricPrecision" stroke-miterlimit="1.45" shape-rendering="geometricPrecision" transform="matrix(1,0,0,1,-1,12)" stroke-linecap="butt">
      <rect fill="none" x="46.5" width="86" height="30" y="303" clip-path="url(#clipPath2)"/>
      <text x="74.541" xml:space="preserve" y="322.5352" clip-path="url(#clipPath2)" font-family="sans-serif" stroke="none">Form</text>
    </g>
    <g fill="rgb(252,82,19)" text-rendering="geometricPrecision" shape-rendering="geometricPrecision" transform="matrix(1,0,0,1,-1,12)" stroke="rgb(252,82,19)">
      <rect x="46.5" width="86" height="30" y="345" clip-path="url(#clipPath2)" stroke="none"/>
    </g>
    <g text-rendering="geometricPrecision" stroke-miterlimit="1.45" shape-rendering="geometricPrecision" transform="matrix(1,0,0,1,-1,12)" stroke-linecap="butt">
      <rect fill="none" x="46.5" width="86" height="30" y="345" clip-path="url(#clipPath2)"/>
      <text x="74.541" xml:space="preserve" y="364.5352" clip-path="url(#clipPath2)" font-family="sans-serif" stroke="none">Form</text>
    </g>
    <g fill="rgb(252,82,19)" text-rendering="geometricPrecision" shape-rendering="geometricPrecision" transform="matrix(1,0,0,1,-1,12)" stroke="rgb(252,82,19)">
      <rect x="46.5" width="86" height="30" y="387" clip-path="url(#clipPath2)" stroke="none"/>
    </g>
    <g text-rendering="geometricPrecision" stroke-miterlimit="1.45" shape-rendering="geometricPrecision" transform="matrix(1,0,0,1,-1,12)" stroke-linecap="butt">
      <rect fill="none" x="46.5" width="86" height="30" y="387" clip-path="url(#clipPath2)"/>
      <text x="74.541" xml:space="preserve" y="406.5352" clip-path="url(#clipPath2)" font-family="sans-serif" stroke="none">Form</text>
    </g>
    <g fill="rgb(255,204,0)" text-rendering="geometricPrecision" shape-rendering="geometricPrecision" transform="matrix(1,0,0,1,-1,12)" stroke="rgb(255,204,0)">
      <rect x="720" y="68" clip-path="url(#clipPath2)" width="117" rx="4" ry="4" height="139" stroke="none"/>
    </g>
    <g text-rendering="geometricPrecision" stroke-miterlimit="1.45" shape-rendering="geometricPrecision" transform="matrix(1,0,0,1,-1,12)" stroke-linecap="butt">
      <rect x="720" y="68" clip-path="url(#clipPath2)" fill="none" width="117" rx="4" ry="4" height="139"/>
      <text x="734.7158" xml:space="preserve" y="85.6016" clip-path="url(#clipPath2)" font-family="sans-serif" stroke="none">Request review</text>
    </g>
    <g fill="rgb(255,204,0)" text-rendering="geometricPrecision" shape-rendering="geometricPrecision" transform="matrix(1,0,0,1,-1,12)" stroke="rgb(255,204,0)">
      <rect x="735" width="86" height="30" y="94" clip-path="url(#clipPath2)" stroke="none"/>
    </g>
    <g text-rendering="geometricPrecision" stroke-miterlimit="1.45" shape-rendering="geometricPrecision" transform="matrix(1,0,0,1,-1,12)" stroke-linecap="butt">
      <rect fill="none" x="735" width="86" height="30" y="94" clip-path="url(#clipPath2)"/>
      <text x="740.6113" y="113.5352" clip-path="url(#clipPath2)" fill="rgb(252,82,19)" font-family="sans-serif" stroke="none" xml:space="preserve">Organisation</text>
    </g>
    <g fill="rgb(255,204,0)" text-rendering="geometricPrecision" shape-rendering="geometricPrecision" transform="matrix(1,0,0,1,-1,12)" stroke="rgb(255,204,0)">
      <rect x="735.5" width="86" height="55" y="133" clip-path="url(#clipPath2)" stroke="none"/>
    </g>
    <g text-rendering="geometricPrecision" stroke-miterlimit="1.45" shape-rendering="geometricPrecision" transform="matrix(1,0,0,1,-1,12)" stroke-linecap="butt">
      <rect fill="none" x="735.5" width="86" height="55" y="133" clip-path="url(#clipPath2)"/>
      <text x="750.1494" xml:space="preserve" y="165.0352" clip-path="url(#clipPath2)" font-family="sans-serif" stroke="none">Comment</text>
    </g>
    <g fill="rgb(22,160,231)" text-rendering="geometricPrecision" shape-rendering="geometricPrecision" transform="matrix(1,0,0,1,-1,12)" stroke="rgb(22,160,231)">
      <rect x="735.5" width="86" height="30" y="316" clip-path="url(#clipPath2)" stroke="none"/>
    </g>
    <g text-rendering="geometricPrecision" stroke-miterlimit="1.45" shape-rendering="geometricPrecision" transform="matrix(1,0,0,1,-1,12)" stroke-linecap="butt">
      <rect fill="none" x="735.5" width="86" height="30" y="316" clip-path="url(#clipPath2)"/>
      <text x="761.1416" xml:space="preserve" y="335.5352" clip-path="url(#clipPath2)" font-family="sans-serif" stroke="none">Public</text>
    </g>
    <g fill="rgb(54,207,42)" text-rendering="geometricPrecision" shape-rendering="geometricPrecision" transform="matrix(1,0,0,1,-1,12)" stroke="rgb(54,207,42)">
      <rect x="735.5" width="86" height="30" y="353" clip-path="url(#clipPath2)" stroke="none"/>
    </g>
    <g text-rendering="geometricPrecision" stroke-miterlimit="1.45" shape-rendering="geometricPrecision" transform="matrix(1,0,0,1,-1,12)" stroke-linecap="butt">
      <rect fill="none" x="735.5" width="86" height="30" y="353" clip-path="url(#clipPath2)"/>
      <text x="761.1416" xml:space="preserve" y="372.5352" clip-path="url(#clipPath2)" font-family="sans-serif" stroke="none">Public</text>
    </g>
    <g fill="rgb(252,82,19)" text-rendering="geometricPrecision" shape-rendering="geometricPrecision" transform="matrix(1,0,0,1,-1,12)" stroke="rgb(252,82,19)">
      <rect x="735.5" width="86" height="30" y="390" clip-path="url(#clipPath2)" stroke="none"/>
    </g>
    <g text-rendering="geometricPrecision" stroke-miterlimit="1.45" shape-rendering="geometricPrecision" transform="matrix(1,0,0,1,-1,12)" stroke-linecap="butt">
      <rect fill="none" x="735.5" width="86" height="30" y="390" clip-path="url(#clipPath2)"/>
      <text x="761.1416" xml:space="preserve" y="402.4688" clip-path="url(#clipPath2)" font-family="sans-serif" stroke="none">Public</text>
      <text x="758.9883" xml:space="preserve" y="416.6016" clip-path="url(#clipPath2)" font-family="sans-serif" stroke="none">Private</text>
    </g>
    <g fill="rgb(252,82,19)" text-rendering="geometricPrecision" shape-rendering="geometricPrecision" transform="matrix(1,0,0,1,-1,12)" stroke="rgb(252,82,19)">
      <rect x="735.5" width="86" height="30" y="427" clip-path="url(#clipPath2)" stroke="none"/>
    </g>
    <g text-rendering="geometricPrecision" stroke-miterlimit="1.45" shape-rendering="geometricPrecision" transform="matrix(1,0,0,1,-1,12)" stroke-linecap="butt">
      <rect fill="none" x="735.5" width="86" height="30" y="427" clip-path="url(#clipPath2)"/>
      <text x="761.1416" xml:space="preserve" y="439.4688" clip-path="url(#clipPath2)" font-family="sans-serif" stroke="none">Public</text>
      <text x="758.9883" xml:space="preserve" y="453.6016" clip-path="url(#clipPath2)" font-family="sans-serif" stroke="none">Private</text>
      <path fill="none" d="M363 401.8793 L393 394.1207" clip-path="url(#clipPath2)"/>
      <path fill="none" d="M363 424.1207 L393 431.8793" clip-path="url(#clipPath2)"/>
      <path fill="none" d="M479 431.8793 L509 424.1207" clip-path="url(#clipPath2)"/>
      <path fill="none" d="M479 454.1207 L509 461.8793" clip-path="url(#clipPath2)"/>
      <path fill="none" d="M363 251.8793 L393 244.1207" clip-path="url(#clipPath2)"/>
      <path fill="none" d="M363 274.1207 L393 281.8793" clip-path="url(#clipPath2)"/>
      <path fill="none" d="M479 281.8793 L509 274.1207" clip-path="url(#clipPath2)"/>
      <path fill="none" d="M479 304.1207 L509 311.8793" clip-path="url(#clipPath2)"/>
      <path fill="none" d="M363 101.8793 L393 94.1207" clip-path="url(#clipPath2)"/>
      <path fill="none" d="M363 124.1207 L393 131.8793" clip-path="url(#clipPath2)"/>
      <path fill="none" d="M339.3333 98 L416.6667 38" clip-path="url(#clipPath2)"/>
      <path fill="none" d="M363 551.8793 L393 544.1207" clip-path="url(#clipPath2)"/>
      <path fill="none" d="M363 574.1207 L393 581.8793" clip-path="url(#clipPath2)"/>
      <path fill="none" d="M479 581.8793 L509 574.1207" clip-path="url(#clipPath2)"/>
      <path fill="none" d="M479 604.1207 L509 611.8793" clip-path="url(#clipPath2)"/>
      <path fill="none" d="M109.3497 261 L298.6503 128" clip-path="url(#clipPath2)"/>
      <path fill="none" d="M132.5 307.7397 L277 273.2603" clip-path="url(#clipPath2)"/>
      <path fill="none" d="M132.5 369.8872 L277 403.1128" clip-path="url(#clipPath2)"/>
      <path fill="none" d="M110.9752 417 L298.5248 548" clip-path="url(#clipPath2)"/>
    </g>
  </g>
</svg>
